<svg width="300" height="300" viewBox="0 0 300 300" fill="none" xmlns="http://www.w3.org/2000/svg">
<path d="M149.823 101.717L192.007 15.9297H263.083L190.944 143.901L265.033 274H193.248L149.823 186.618L106.397 274H34.79L108.702 143.901L36.7397 15.9297H107.638L149.823 101.717Z" fill="url(#paint0_linear)"/>
<path d="M149.823 101.717L148.925 102.158L149.823 103.983L150.72 102.158L149.823 101.717ZM192.007 15.9297V14.9297H191.385L191.11 15.4884L192.007 15.9297ZM263.083 15.9297L263.954 16.4208L264.795 14.9297H263.083V15.9297ZM190.944 143.901L190.073 143.41L189.794 143.904L190.075 144.396L190.944 143.901ZM265.033 274V275H266.753L265.902 273.505L265.033 274ZM193.248 274L192.353 274.445L192.628 275H193.248V274ZM149.823 186.618L150.718 186.173L149.823 184.371L148.927 186.173L149.823 186.618ZM106.397 274V275H107.017L107.293 274.445L106.397 274ZM34.79 274L33.9206 273.506L33.0718 275H34.79V274ZM108.702 143.901L109.571 144.395L109.85 143.904L109.573 143.411L108.702 143.901ZM36.7397 15.9297V14.9297H35.0302L35.8681 16.4198L36.7397 15.9297ZM107.638 15.9297L108.536 15.4884L108.261 14.9297H107.638V15.9297ZM150.72 102.158L192.905 16.371L191.11 15.4884L148.925 101.276L150.72 102.158ZM192.007 16.9297H263.083V14.9297H192.007V16.9297ZM262.212 15.4386L190.073 143.41L191.815 144.392L263.954 16.4208L262.212 15.4386ZM190.075 144.396L264.164 274.495L265.902 273.505L191.813 143.407L190.075 144.396ZM265.033 273H193.248V275H265.033V273ZM194.144 273.555L150.718 186.173L148.927 187.063L192.353 274.445L194.144 273.555ZM148.927 186.173L105.502 273.555L107.293 274.445L150.718 187.063L148.927 186.173ZM106.397 273H34.79V275H106.397V273ZM35.6595 274.494L109.571 144.395L107.832 143.407L33.9206 273.506L35.6595 274.494ZM109.573 143.411L37.6114 15.4395L35.8681 16.4198L107.83 144.392L109.573 143.411ZM36.7397 16.9297H107.638V14.9297H36.7397V16.9297ZM106.741 16.371L148.925 102.158L150.72 101.276L108.536 15.4884L106.741 16.371Z" fill="white"/>
<defs>
<linearGradient id="paint0_linear" x1="150" y1="2" x2="150" y2="298" gradientUnits="userSpaceOnUse">
<stop stop-color="#43E97B"/>
<stop offset="1" stop-color="#38F9D7"/>
</linearGradient>
</defs>
</svg>
